<svg width="100" height="50" viewBox="0 0 100 50" fill="none" xmlns="http://www.w3.org/2000/svg">
<rect width="100" height="50" fill="white"/>
<path d="M20.6716 1.23712C15.9002 4.63902 12.1577 5.3765 4.02372 3.71642C3.61238 3.63247 3.27752 4.06036 3.45763 4.43958C5.94776 9.68237 6.46944 13.1963 5.07626 19.6522C5.0316 19.8592 5.12206 20.0762 5.30071 20.1898C10.4902 23.4919 12.5019 26.1708 12.0431 33.3973C12.0233 33.7096 12.2916 33.9689 12.6031 33.9389C21.811 33.0506 25.7189 34.8295 29.2506 42.4507C29.3818 42.734 29.7374 42.8375 29.9951 42.6612L38.9467 36.5365C38.9821 36.5123 39.0205 36.4927 39.0608 36.4783L45.7193 34.1003C45.8922 34.0385 46.0174 33.8869 46.0453 33.7054L46.9898 27.566C46.9966 27.5222 46.9973 27.4767 46.9924 27.4327C46.526 23.2553 46.9194 21.1471 48.8851 18.7163C49.1374 18.4043 48.9605 17.9226 48.5651 17.8548C41.4715 16.6393 38.8821 13.4094 37.1154 4.12142C37.0553 3.8058 36.7177 3.6212 36.4207 3.74361C30.1912 6.31088 26.7123 5.97465 21.3054 1.26865C21.1279 1.11412 20.8632 1.10048 20.6716 1.23712Z" fill="#096612"/>
<path d="M64.4552 5.0869C63.7036 14.0511 60.3466 16.2656 53.1422 18.32C52.8219 18.4113 52.6714 18.781 52.8261 19.0759C55.3549 23.8982 57.2276 35.6739 57.5 35C57.7743 34.3213 67.0372 37.6146 72.8945 42.4803C73.1784 42.7161 73.6168 42.5863 73.7239 42.233C76.1066 34.3729 79.6411 32.2691 89.7647 33.8786C90.1146 33.9342 90.4179 33.6206 90.353 33.2723C89.2726 27.4679 90.9594 24.1495 96.3111 18.692C96.4276 18.5732 96.4795 18.4 96.4474 18.2367C95.3098 12.4613 95.7552 9.02654 97.24 3.45935C97.3458 3.06263 96.9548 2.70871 96.5677 2.84568C90.8922 4.85411 87.1022 4.34242 80.3173 1.1502C80.1281 1.06118 79.899 1.09871 79.7475 1.24282C75.3826 5.3948 72.0313 6.13286 65.0718 4.62688C64.7719 4.562 64.4808 4.78119 64.4552 5.0869Z" fill="#096612"/>
<circle cx="50" cy="42.5" r="6" fill="#873135"/>
<circle cx="45" cy="34.5" r="7" fill="#AF3C41"/>
<circle cx="56" cy="35.5" r="6" fill="#E24950"/>
</svg>
