<svg width="50" height="51" viewBox="0 0 50 51" fill="none" xmlns="http://www.w3.org/2000/svg">
<path d="M25 50.3872C38.8071 50.3872 50 39.1943 50 25.3872C50 11.5801 38.8071 0.387207 25 0.387207C11.1929 0.387207 0 11.5801 0 25.3872C0 39.1943 11.1929 50.3872 25 50.3872Z" fill="#FADF54"/>
<path d="M20.6922 24.1119H17.585C17.5098 24.1119 17.468 24.0701 17.4597 23.9866L13.914 6.34712C13.8973 6.28026 13.9307 6.24683 14.0142 6.24683H16.9209C16.9878 6.24683 17.0295 6.28026 17.0462 6.34712L19.1511 18.1068L21.2058 6.34712C21.2225 6.28026 21.2643 6.24683 21.3311 6.24683H24.2003C24.2921 6.24683 24.3255 6.28026 24.3005 6.34712L20.8174 23.9866C20.8091 24.0701 20.7673 24.1119 20.6922 24.1119ZM28.8109 24.1119H25.9292C25.8457 24.1119 25.804 24.0701 25.804 23.9866L25.8542 6.34712C25.8542 6.28026 25.8874 6.24683 25.9543 6.24683H30.8908C32.461 6.24683 33.7014 6.72741 34.6118 7.68857C35.5305 8.64137 35.99 9.94104 35.99 11.5876C35.99 12.7911 35.7519 13.84 35.2759 14.7343C34.7915 15.6202 34.1649 16.3056 33.3965 16.7904C32.6281 17.2751 31.7929 17.5175 30.8908 17.5175H28.9363V23.9866C28.9363 24.0701 28.8943 24.1119 28.8109 24.1119ZM30.8908 9.29329L28.9363 9.31838V14.4084H30.8908C31.4337 14.4084 31.9055 14.1493 32.3064 13.6311C32.7073 13.1045 32.9079 12.4234 32.9079 11.5876C32.9079 10.9189 32.7284 10.3715 32.3692 9.94521C32.01 9.5106 31.5172 9.29329 30.8908 9.29329ZM19.4267 44.9031C18.4996 44.9031 17.6518 44.6691 16.8833 44.2012C16.1232 43.733 15.5177 43.1062 15.0666 42.3205C14.6239 41.5265 14.4026 40.6448 14.4026 39.6753L14.4276 31.6641C14.4276 30.7114 14.6448 29.8504 15.0792 29.0815C15.5135 28.3043 16.1107 27.6816 16.8708 27.2136C17.6393 26.7372 18.4912 26.4989 19.4267 26.4989C20.3789 26.4989 21.2267 26.7287 21.9701 27.1885C22.7218 27.6481 23.3191 28.2709 23.7617 29.0566C24.2128 29.8338 24.4383 30.7029 24.4383 31.6641V32.8426C24.4383 32.9094 24.4049 32.9429 24.3381 32.9429H21.4564C21.3896 32.9429 21.3562 32.9094 21.3562 32.8426V31.6641C21.3562 31.0959 21.1724 30.6069 20.8049 30.1973C20.4374 29.7878 19.978 29.5831 19.4267 29.5831C18.817 29.5831 18.3492 29.792 18.0235 30.2099C17.6977 30.6278 17.5348 31.1125 17.5348 31.6641V39.6753C17.5348 40.3021 17.7186 40.816 18.0861 41.2173C18.4536 41.61 18.9005 41.8066 19.4267 41.8066C19.978 41.8066 20.4374 41.5891 20.8049 41.1546C21.1724 40.7116 21.3562 40.2186 21.3562 39.6753V38.4843C21.3562 38.4174 21.3896 38.384 21.4564 38.384H24.3631C24.43 38.384 24.4634 38.4174 24.4634 38.4843V39.6753C24.4634 40.6365 24.2378 41.514 23.7868 42.308C23.3274 43.0936 22.7218 43.7247 21.9701 44.2012C21.2184 44.6691 20.3705 44.9031 19.4267 44.9031ZM31.0537 44.9031C30.1264 44.9031 29.2786 44.6691 28.5102 44.2012C27.7502 43.733 27.1446 43.1062 26.6935 42.3205C26.2509 41.5265 26.0294 40.6448 26.0294 39.6753L26.0546 31.6641C26.0546 30.7114 26.2717 29.8504 26.7061 29.0815C27.1404 28.3043 27.7376 27.6816 28.4977 27.2136C29.2661 26.7372 30.1181 26.4989 31.0537 26.4989C32.0058 26.4989 32.8536 26.7287 33.5971 27.1885C34.3486 27.6481 34.9459 28.2709 35.3887 29.0566C35.8396 29.8338 36.0651 30.7029 36.0651 31.6641V32.8426C36.0651 32.9094 36.0317 32.9429 35.965 32.9429H33.0833C33.0165 32.9429 32.983 32.9094 32.983 32.8426V31.6641C32.983 31.0959 32.7993 30.6069 32.4318 30.1973C32.0643 29.7878 31.6049 29.5831 31.0537 29.5831C30.4439 29.5831 29.9761 29.792 29.6504 30.2099C29.3246 30.6278 29.1617 31.1125 29.1617 31.6641V39.6753C29.1617 40.3021 29.3455 40.816 29.713 41.2173C30.0805 41.61 30.5274 41.8066 31.0537 41.8066C31.6049 41.8066 32.0643 41.5891 32.4318 41.1546C32.7993 40.7116 32.983 40.2186 32.983 39.6753V38.4843C32.983 38.4174 33.0165 38.384 33.0833 38.384H35.99C36.0568 38.384 36.0902 38.4174 36.0902 38.4843V39.6753C36.0902 40.6365 35.8648 41.514 35.4136 42.308C34.9544 43.0936 34.3486 43.7247 33.5971 44.2012C32.8453 44.6691 31.9975 44.9031 31.0537 44.9031Z" fill="#1A1A1A"/>
</svg>
