<svg width="80" height="100" viewBox="0 0 80 100" fill="none" xmlns="http://www.w3.org/2000/svg">
<g clip-path="url(#clip0_438_2)">
<rect width="80" height="100" fill="white"/>
<path d="M10 80L30 10C30 10 25 10 25 5C25 0 30 0 30 0H50C50 0 55.5 0 55.5 5C55.5 10 50 10 50 10L70 80C70 80 80 80 80 90C80 100 70 100 70 100H10C10 100 0 100 0 90C0 80 10 80 10 80Z" fill="#FD9010"/>
<mask id="mask0_438_2" style="mask-type:alpha" maskUnits="userSpaceOnUse" x="0" y="0" width="80" height="100">
<path d="M10 80L30 10C30 10 25 10 25 5C25 0 30 0 30 0H50C50 0 55.5 0 55.5 5C55.5 10 50 10 50 10L70 80C70 80 80 80 80 90C80 100 70 100 70 100H10C10 100 0 100 0 90C0 80 10 80 10 80Z" fill="#FD9010"/>
</mask>
<g mask="url(#mask0_438_2)">
<path d="M80 27.4L0 43V58.6L80 43V27.4Z" fill="#FFD9AC"/>
<path d="M80 4L0 19.6V35.2L80 19.6V4Z" fill="#FFD9AC"/>
<path d="M80 50.7999L0 66.3999V81.9999L80 66.3999V50.7999Z" fill="#FFD9AC"/>
</g>
</g>
<defs>
<clipPath id="clip0_438_2">
<rect width="80" height="100" fill="white"/>
</clipPath>
</defs>
</svg>
